# xmcd
#
# Track frame offsets:
#	150
#	16128
#	31696
#	53544
#	69149
#	91697
#	111519
#	127148
#	145696
#	162036
#	178944
#	191739
#	205601
#
# Disc length: 2919 seconds
#
# Revision: 1
# Processed by: cddbd v1.5.2PL0 Copyright (c) Steve Scherf et al.
# Submitted via: audiograbber 1.83.01
#
DISCID=a30b650d
DTITLE=Shaylee Wilde - Solid Ground
DYEAR=2001
DGENRE=Folk
TTITLE0=Solid Ground
TTITLE1=Lovin' Is Through
TTITLE2=Home I'll Be
TTITLE3=Don't Play Your Rock'n'Roll
TTITLE4=Make You Love Me
TTITLE5=Comin' Back To You
TTITLE6=Dream A Little Dream
TTITLE7=This Is
TTITLE8=Get Over You
TTITLE9=To Love Somebody
TTITLE10=Crazy
TTITLE11=Tennessee Waltz
TTITLE12=Last Chance
EXTD=
EXTT0=
EXTT1=
EXTT2=
EXTT3=
EXTT4=
EXTT5=
EXTT6=
EXTT7=
EXTT8=
EXTT9=
EXTT10=
EXTT11=
EXTT12=
PLAYORDER=
